<?xml version="1.0" encoding="utf-8"?>
<!-- Generator: Adobe Illustrator 16.0.0, SVG Export Plug-In . SVG Version: 6.00 Build 0)  -->
<!DOCTYPE svg PUBLIC "-//W3C//DTD SVG 1.1//EN" "http://www.w3.org/Graphics/SVG/1.1/DTD/svg11.dtd">
<svg version="1.1" id="Layer_1" xmlns="http://www.w3.org/2000/svg" xmlns:xlink="http://www.w3.org/1999/xlink" x="0px" y="0px"
	 width="30px" height="29px" viewBox="0 0 30 29" enable-background="new 0 0 30 29" xml:space="preserve">
<path fill-rule="evenodd" clip-rule="evenodd" fill="#FFFFFF" d="M27.07,17.049L27.07,17.049l-0.833-0.83l0,0
	c3.448-3.44,3.448-9.02,0-12.459c-3.447-3.441-9.038-3.441-12.485,0l0,0l-0.833-0.832l0,0c3.907-3.898,10.243-3.898,14.151,0
	C30.978,6.827,30.978,13.15,27.07,17.049z M17.243,6.921C17.138,6.768,16.99,6.646,16.8,6.556c-0.19-0.089-0.423-0.135-0.698-0.135
	c-0.511,0-0.875,0.191-1.094,0.575c-0.219,0.381-0.34,0.909-0.364,1.584h-1.385c0-0.988,0.257-1.79,0.771-2.406
	c0.515-0.617,1.232-0.926,2.156-0.926c0.493,0,0.919,0.082,1.275,0.241c0.356,0.16,0.64,0.374,0.851,0.642
	c0.21,0.268,0.364,0.556,0.461,0.865c0.098,0.309,0.146,0.609,0.146,0.905c0,0.618-0.169,1.153-0.505,1.603
	c-0.336,0.455-0.8,0.89-1.391,1.311c-0.138,0.098-0.336,0.232-0.595,0.406c-0.503,0.329-0.883,0.607-1.143,0.832
	c-0.259,0.227-0.433,0.477-0.521,0.748h4.142v1.258h-5.807c0.009-0.69,0.175-1.309,0.498-1.851c0.324-0.543,0.782-1.016,1.373-1.419
	c0.146-0.107,0.353-0.251,0.619-0.432c0.341-0.231,0.607-0.42,0.802-0.569c0.194-0.147,0.379-0.312,0.553-0.492
	s0.314-0.385,0.419-0.61c0.105-0.228,0.162-0.472,0.17-0.734c0-0.182-0.021-0.36-0.066-0.537
	C17.423,7.236,17.349,7.073,17.243,6.921z M24.228,14.059V12.01h-3.644v-1.394l3.644-5.196h1.312v5.48h1.094v1.109h-1.094v2.049
	H24.228z M24.228,7.101h-0.024l-2.551,3.8h2.575V7.101z M14.516,19.055c2.432,1.938,3.543,3.005,4.504,2.027l2.08-2.076
	c1.038-1.033,2.867-1.292,3.91-0.251l3.357,3.35c1.043,1.041,1.047,2.724,0.01,3.759l0,0c-0.413,0.412-1.019,1.012-1.252,1.25
	l-0.209,0.208l-0.346,0.345c-1.685,1.681-8.173,3.632-18.729-6.938C-2.179,10.698-0.252,4.921,1.114,3.238
	c0.832-0.846,1.86-1.863,2.294-2.292L3.41,0.949c1.037-1.036,2.723-1.03,3.766,0.01l3.357,3.349c1.043,1.042,1.047,2.723,0.01,3.76
	h0.001c-0.488,0.487-1.67,1.665-1.67,1.665l-0.626,0.625c-1.005,1.022,0.059,2.372,1.19,3.738
	C9.471,14.168,14.479,19.044,14.516,19.055z M26.975,25.648c1.458-1.457,1.021-2.253-0.465-3.735l-1.664-1.662
	c-1.422-1.417-2.39-0.938-3.647,0.318c-0.031,0.033-0.063,0.067-0.095,0.1l5.409,5.399C26.667,25.934,26.82,25.802,26.975,25.648z
	 M8.651,8.244c0.114-0.111,0.243-0.241,0.441-0.438C10.3,6.6,10.428,5.864,9.449,4.888L6.952,2.396
	c-1.083-1.08-1.823-1.503-3.329,0.001C3.479,2.539,3.341,2.676,3.205,2.812L8.651,8.244z M7.205,9.689
	c0.259-0.262,0.449-0.453,0.612-0.615L2.408,3.676C1.901,4.294,1.516,4.977,1.319,5.967c-0.603,2.813,1.432,8.301,7.712,14.286
	c0,0,4.709,4.626,8.776,6.383c2.046,0.782,4.824,2.03,7.76,0.15l-5.274-5.263c-0.714,0.733-1.438,1.368-1.99,1.301
	c-1.223,0.172-4.002-2.072-5.751-3.766c-1.313-1.29-5.661-5.227-6.065-7.667C6.359,10.673,6.928,9.958,7.205,9.689z"/>
</svg>
