<?xml version="1.0" encoding="iso-8859-1"?>
<!-- Generator: Adobe Illustrator 16.0.0, SVG Export Plug-In . SVG Version: 6.00 Build 0)  -->
<!DOCTYPE svg PUBLIC "-//W3C//DTD SVG 1.1//EN" "http://www.w3.org/Graphics/SVG/1.1/DTD/svg11.dtd">
<svg xmlns="http://www.w3.org/2000/svg" xmlns:xlink="http://www.w3.org/1999/xlink" version="1.1" id="Capa_1" x="0px" y="0px" width="150" height="150" viewBox="0 0 33.441 33.441" style="enable-background:new 0 0 33.441 33.441;" xml:space="preserve">
<g>
	<g>
		<path d="M17.418,25.114h-0.881c0.111-0.124,0.185-0.284,0.185-0.464v-0.696c0-0.383-0.313-0.697-0.696-0.697H2.09    c-0.384,0-0.697,0.314-0.697,0.697v0.696c0,0.18,0.074,0.34,0.186,0.464H0.697C0.312,25.114,0,25.429,0,25.812v2.787    c0,0.383,0.313,0.697,0.697,0.697H17.42c0.385,0,0.696-0.314,0.696-0.697V25.81C18.116,25.429,17.803,25.114,17.418,25.114z     M16.427,28.335H1.752c-0.403,0-0.733-0.33-0.733-0.732v-0.734c0.001-0.402,0.33-0.734,0.733-0.732h14.675    c0.405,0,0.735,0.33,0.734,0.731l0.001,0.735C17.161,28.005,16.832,28.335,16.427,28.335z" fill="#0a6e9f"/>
	</g>
</g>
</svg>
